<?xml version="1.0" standalone="no"?><!DOCTYPE svg PUBLIC "-//W3C//DTD SVG 1.1//EN" "http://www.w3.org/Graphics/SVG/1.1/DTD/svg11.dtd"><svg t="1773888817742" class="icon" viewBox="0 0 1024 1024" version="1.1" xmlns="http://www.w3.org/2000/svg" p-id="24176" xmlns:xlink="http://www.w3.org/1999/xlink" width="256" height="256"><path d="M536.037053 976.896H191.488c-35.786105 0-56.212211-14.713263-67.045053-27.109053-25.114947-28.618105-20.857263-67.530105-20.264421-71.895579L103.909053 143.683368C103.909053 77.338947 158.612211 51.685053 187.553684 47.427368L797.803789 47.157895c62.302316 0 88.710737 57.236211 93.938527 87.525052l0.377263 234.657685h-53.894737v-230.130527c-0.485053 0-8.677053-38.157474-40.421053-38.157473H191.488c-2.101895 0.700632-33.684211 7.814737-33.684211 42.630736v737.711158c-0.808421 8.515368-0.592842 24.144842 7.27579 32.983579 5.12 5.658947 14.012632 8.569263 26.408421 8.569263h344.549053v53.948632z" fill="#2c2c2c" p-id="24177"></path><path d="M288.552421 276.102737h410.462316v36.971789H288.552421zM288.552421 440.050526H618.172632v36.97179H288.552421zM288.552421 608.471579h209.273263v36.971789H288.552421z" fill="#2c2c2c" p-id="24178"></path><path d="M795.648 905.431579a22.258526 22.258526 0 0 1-16.761263-7.545263c-5.497263-6.359579-22.959158-23.013053-37.187369-23.013053-14.228211 0-31.959579 16.707368-37.025684 22.581895a22.312421 22.312421 0 0 1-16.653473 7.383579 20.48 20.48 0 0 1-8.515369-1.832421l-0.431158-0.215579-43.439158-25.653895-0.431158-0.377263a22.851368 22.851368 0 0 1-7.006315-26.624c0-0.053895 4.042105-9.754947 4.042105-18.593684 0-26.839579-20.695579-48.666947-46.026105-48.666948h-1.832421c-7.275789 0-13.204211-6.898526-15.090527-17.408-0.107789-0.862316-3.664842-20.911158-3.664842-36.702315s3.557053-35.84 3.664842-36.756211c1.886316-10.671158 7.922526-17.515789 15.36-17.30021h1.562948c25.384421 0 46.026105-21.881263 46.026105-48.720843 0-8.838737-4.042105-18.539789-4.042105-18.701473a22.635789 22.635789 0 0 1 7.006315-26.516211l0.485053-0.377263 45.918316-26.624 0.485052-0.215579a22.743579 22.743579 0 0 1 25.061053 5.551158c5.389474 5.982316 22.528 21.611789 36.378947 21.611789 13.797053 0 30.827789-15.36 36.271158-21.234526a22.366316 22.366316 0 0 1 25.061053-5.335579l0.485053 0.215579 44.193684 25.977263 0.485052 0.377263a22.635789 22.635789 0 0 1 7.006316 26.570106c0 0.107789-3.988211 9.808842-3.98821 18.647579 0 26.839579 20.641684 48.720842 46.026105 48.720842h1.562947c7.383579-0.215579 13.419789 6.629053 15.306106 17.30021 0.107789 0.916211 3.664842 20.965053 3.664842 36.756211s-3.557053 35.84-3.664842 36.702316c-1.886316 10.725053-7.922526 17.515789-15.306106 17.408h-1.562947c-25.438316 0-46.026105 21.827368-46.026105 48.666947 0 8.838737 3.988211 18.539789 3.98821 18.647579a22.635789 22.635789 0 0 1-7.006316 26.570105l-0.485052 0.377263-45.002105 26.300632-0.485053 0.161684a18.647579 18.647579 0 0 1-8.407579 1.886316z m-1.347368-22.420211c0.107789 0.161684 0.754526 0.377263 1.293473 0.377264h0.10779l41.984-24.576a79.656421 79.656421 0 0 1-5.605053-27.216843c0-37.780211 28.133053-68.715789 63.380211-70.656 0.538947-3.018105 3.341474-19.671579 3.341473-32.175157 0-12.503579-2.802526-29.157053-3.341473-32.175158-35.193263-1.940211-63.380211-32.821895-63.380211-70.656 0-12.665263 4.634947-24.791579 5.605053-27.216842l-41.337263-24.360421h-0.215579a2.586947 2.586947 0 0 0-1.509053 0.485052c-0.754526 0.754526-6.736842 7.221895-15.306105 13.581474-12.773053 9.485474-24.845474 14.282105-35.893895 14.282105s-23.336421-4.850526-36.055579-14.551579c-8.677053-6.521263-14.659368-13.150316-15.413895-13.904842a3.233684 3.233684 0 0 0-1.562947-0.431158h-0.215579l-42.738526 24.899369c0.970105 2.533053 5.605053 14.605474 5.605052 27.216842 0 37.780211-28.079158 68.661895-63.38021 70.656-0.485053 3.018105-3.287579 19.617684-3.287579 32.175158 0 12.449684 2.802526 29.157053 3.287579 32.175157 35.247158 1.940211 63.380211 32.821895 63.38021 70.656 0 12.611368-4.634947 24.791579-5.658947 27.270737l40.636632 23.929263h0.053894a3.125895 3.125895 0 0 0 1.347369-0.377263c0.700632-0.916211 6.736842-7.706947 15.521684-14.389894 12.934737-10.132211 25.330526-15.198316 36.75621-15.198316 11.479579 0 23.875368 5.227789 36.97179 15.521684 8.730947 6.898526 14.821053 13.743158 15.629474 14.659368z m-52.493474-89.626947c-33.792 0-61.332211-29.103158-61.332211-64.835368s27.540211-64.781474 61.332211-64.781474c33.845895 0 61.332211 29.049263 61.33221 64.781474s-27.486316 64.835368-61.33221 64.835368z m0-107.627789c-22.312421 0-40.367158 19.186526-40.367158 42.792421s18.054737 42.792421 40.367158 42.792421c22.366316 0 40.474947-19.186526 40.474947-42.792421s-18.108632-42.792421-40.474947-42.792421z" p-id="24179"></path></svg>