<?xml version="1.0" standalone="no"?><!DOCTYPE svg PUBLIC "-//W3C//DTD SVG 1.1//EN" "http://www.w3.org/Graphics/SVG/1.1/DTD/svg11.dtd"><svg t="1773887505966" class="icon" viewBox="0 0 1024 1024" version="1.1" xmlns="http://www.w3.org/2000/svg" p-id="7175" xmlns:xlink="http://www.w3.org/1999/xlink" ><path d="M645.67 533.92c27.01-31.89 43.32-73.13 43.32-118.11 0-16.59-2.22-32.67-6.38-47.96l87.21-47.17a45.208 45.208 0 0 0 23.73-40.04 45.207 45.207 0 0 0-24.1-39.82L527.51 112.81a45.219 45.219 0 0 0-42.31-0.02L242.64 240.8a45.211 45.211 0 0 0-24.15 39.84 45.193 45.193 0 0 0 23.78 40.06l87.14 47.01c-4.18 15.33-6.41 31.46-6.41 48.1 0 46.9 17.73 89.72 46.84 122.14-48.46 23.86-90.15 59.44-121.76 104.18-38.65 54.69-59.07 118.89-59.07 185.68 0 33.94 27.62 61.56 61.56 61.56H444c2.7 0 5.33-0.34 7.83-0.97L493 912.17a31.975 31.975 0 0 0 32 0l81.43-47.01c9.9-5.71 16-16.28 16-27.71v-94.03c0-11.43-6.1-22-16-27.71L525 668.7c-9.9-5.72-22.1-5.72-32 0l-81.43 47.01c-9.9 5.71-16 16.28-16 27.71v81.95H253.01c0.49-52.61 16.83-103.15 47.33-146.31 30.32-42.92 72.15-75.33 120.96-93.75 2.58-0.98 4.96-2.25 7.12-3.77 23.56 11.08 49.86 17.27 77.57 17.27 30.07 0 58.48-7.29 83.54-20.21a31.84 31.84 0 0 0 9.41 5.32c102.17 36.74 171.05 133.61 172.04 241.54-16.53 1.25-29.55 15.06-29.55 31.91 0 17.67 14.33 32 32 32 33.94 0 61.56-27.62 61.56-61.56 0-126.74-75.06-241.65-189.32-293.89zM459.57 761.9L509 733.36l49.43 28.54v57.07L509 847.51l-49.43-28.54V761.9z m46.42-227.09c-65.62 0-119-53.38-119-119s53.38-119 119-119 119 53.38 119 119-53.38 119-119 119z m0-302c-61.44 0-115.9 30.43-149.11 77.01l-53.36-28.79L506.33 174 708.6 281.03l-53.42 28.9c-33.2-46.64-87.7-77.12-149.19-77.12z" p-id="7176"></path></svg>