<?xml version="1.0" standalone="no"?><!DOCTYPE svg PUBLIC "-//W3C//DTD SVG 1.1//EN" "http://www.w3.org/Graphics/SVG/1.1/DTD/svg11.dtd"><svg t="1773888668001" class="icon" viewBox="0 0 1024 1024" version="1.1" xmlns="http://www.w3.org/2000/svg" p-id="19966" xmlns:xlink="http://www.w3.org/1999/xlink" width="256" height="256"><path d="M986.996364 846.801455L538.996364 142.801455a32.023273 32.023273 0 0 0-53.992728 0L37.003636 846.801455a32.023273 32.023273 0 0 0 26.996364 49.198545h896a32.023273 32.023273 0 0 0 26.996364-49.198545z m-864.674909-14.801455L512 219.601455l389.678545 612.398545H122.321455z" p-id="19967"></path><path d="M495.802182 328.890182l-268.8 422.4a19.176727 19.176727 0 0 0 16.197818 29.509818h537.6a19.176727 19.176727 0 0 0 16.197818-29.509818l-268.8-422.4a19.176727 19.176727 0 0 0-32.395636 0z m48.221091 407.133091h-64.046546v-64.046546h64.046546v64.046546z m0-288.023273v192h-64.046546V448h64.046546z" p-id="19968"></path></svg>