<?xml version="1.0" standalone="no"?><!DOCTYPE svg PUBLIC "-//W3C//DTD SVG 1.1//EN" "http://www.w3.org/Graphics/SVG/1.1/DTD/svg11.dtd"><svg t="1773888338729" class="icon" viewBox="0 0 1024 1024" version="1.1" xmlns="http://www.w3.org/2000/svg" p-id="12503" xmlns:xlink="http://www.w3.org/1999/xlink" width="256" height="256"><path d="M859.96197 557.315068c25.375947-50.850132 39.998993-107.830891 39.998992-168.308287 0-211.209376-173.691901-382.428969-387.928216-382.428969-214.238362 0-387.930263 171.220616-387.997802 382.463762 0 60.476373 14.622022 117.459179 39.998993 168.307263L6.575766 826.189795s99.858312 20.045545 201.189161 40.910759A267442.984441 267442.984441 0 0 1 342.555843 1017.422188l144.787594-247.184729c8.18645 0.512676 16.335037 1.234107 24.656563 1.234107 8.320503 0 16.471137-0.721431 24.65554-1.234107L681.444157 1017.422188s67.258847-75.071789 134.788869-150.319588c101.329826-20.866237 201.190185-40.912805 201.190185-40.912805L859.96197 557.315068zM335.090824 902.739239s-48.491411-46.017056-94.071515-90.354868c-64.655556-18.401092-129.892349-37.144992-129.892349-37.144991l91.503017-156.211785c52.80567 68.907393 128.522142 119.481232 216.152968 140.827399l-83.692121 142.884245z m176.896896-190.677761c-179.850158 0-325.619102-146.136312-325.619102-326.44491 0-180.269713 145.768945-326.440817 325.619102-326.440817v-3.223415c181.628664 0 330.571904 149.358703 330.571905 329.664232 0 180.273806-150.754492 326.44491-330.571905 326.44491z m271.060509 100.320847c-45.578058 44.339858-94.069469 90.356914-94.069469 90.356914l-83.69519-142.919037c87.630826-21.346167 163.383114-71.922053 216.155015-140.829446l91.501993 156.248624s-65.236793 18.7439-129.892349 37.142945zM607.79988 448.420963l81.927941-51.973722v-28.735462H471.38907v28.735462h165.972079l-61.658292 39.720653v20.704554H448.584692v29.580713h127.118165v51.127447c0 15.773242-7.322779 23.663956-21.961174 23.663956-21.401426 0-45.049009-1.12973-70.949912-3.381003 2.251274 12.112875 4.081968 23.521716 5.490038 34.228569 31.250748 0.280386 55.746652 0.421602 73.482595 0.421602 30.688953 0 46.032406-16.620539 46.032406-49.862641V486.452137h111.069655v-29.580712H607.79988v-8.450462z m1.266853-267.055289h-32.095999v38.031175H459.563744v-37.609573h-32.094976v37.609573H315.976488v29.578666h111.491257v26.198685h32.095999v-26.198685h117.404943v30.846542h32.095999v-30.846542h109.803825v-29.578666H609.066733v-38.031175z m103.888092 148.740626v-29.580712H465.899032a1288.24529 1288.24529 0 0 0 9.714246-19.435655h-33.363875a625.583918 625.583918 0 0 1-9.924024 19.435655H316.821739v29.578665h98.820679c-31.250748 51.973722-68.413136 95.359858-111.491256 130.147153 5.629207 7.606235 12.246929 17.044188 19.850093 28.313859 21.395286-18.028609 41.808198-38.802748 61.23669-62.326511v167.121252h32.095999V383.347898c11.401678-16.616446 22.382776-34.364669 32.940226-53.240575h262.680655z" p-id="12504"></path></svg>