<?xml version="1.0" standalone="no"?><!DOCTYPE svg PUBLIC "-//W3C//DTD SVG 1.1//EN" "http://www.w3.org/Graphics/SVG/1.1/DTD/svg11.dtd"><svg t="1773888372934" class="icon" viewBox="0 0 1024 1024" version="1.1" xmlns="http://www.w3.org/2000/svg" p-id="13528" xmlns:xlink="http://www.w3.org/1999/xlink" width="256" height="256"><path d="M757.76 145.066667c48.64 0 89.002667 35.882667 91.221333 81.962666l0.085334 3.882667v562.176c0 46.250667-38.698667 83.712-87.296 85.76l-4.010667 0.085333H279.04c-48.64 0-89.002667-35.882667-91.221333-81.962666l-0.085334-3.882667V230.912c0-46.250667 38.698667-83.712 87.296-85.76L279.04 145.066667h478.72z m-234.581333 62.890666l-244.138667 0.042667c-13.525333 0-24.661333 7.722667-27.605333 17.536l-0.64 3.370667-0.128 2.005333v562.176c0 11.52 11.093333 21.76 25.6 22.826667l2.773333 0.085333h478.72c15.018667 0 27.093333-9.514667 28.245333-20.906667l0.128-2.005333V230.912c0-11.52-11.093333-21.76-25.6-22.826667l-2.773333-0.085333-26.581333-0.042667v205.397334l-6.186667 3.797333-95.872-50.773333-99.712 50.773333-6.186667-3.84-0.042666-205.354667z m145.066666 0h-82.133333V317.866667l43.008-20.138667 39.125333 19.882667v-109.653334z" p-id="13529" ></path></svg>