<?xml version="1.0" standalone="no"?><!DOCTYPE svg PUBLIC "-//W3C//DTD SVG 1.1//EN" "http://www.w3.org/Graphics/SVG/1.1/DTD/svg11.dtd"><svg t="1773887888573" class="icon" viewBox="0 0 1024 1024" version="1.1" xmlns="http://www.w3.org/2000/svg" p-id="9610" xmlns:xlink="http://www.w3.org/1999/xlink" width="256" height="256"><path d="M285 228c-6.6 0-12 5.2-12 11.6v40.7c0 6.4 5.4 11.6 12 11.6h386c6.6 0 12-5.2 12-11.6v-40.7c0-6.4-5.4-11.6-12-11.6H285zM515 388.1H285c-6.6 0-12 5.2-12 11.6v40.7c0 6.4 5.4 11.6 12 11.6h230c6.6 0 12-5.2 12-11.6v-40.7c0-6.4-5.4-11.6-12-11.6zM515 548.2H285c-6.6 0-12 5.2-12 11.6v40.7c0 6.4 5.4 11.6 12 11.6h230c6.6 0 12-5.2 12-11.6v-40.7c0-6.4-5.4-11.6-12-11.6z" p-id="9611"></path><path d="M451 885.5H198.5v-752h560V462c0 8.8 7.2 16 16 16h40c8.8 0 16-7.2 16-16V93.5c0-17.6-14.4-32-32-32h-640c-17.6 0-32 14.4-32 32v832c0 17.6 14.4 32 32 32H451c8.8 0 16-7.2 16-16v-40c0-8.8-7.2-16-16-16z" p-id="9612"></path><path d="M848 752H747.5v-32c37.5-12.7 64.5-48.2 64.5-90 0-52.5-42.5-95-95-95s-95 42.5-95 95c0 40.7 25.6 75.4 61.5 88.9V752H562c-17.6 0-32 14.4-32 32v136c0 17.6 14.4 32 32 32h286c17.6 0 32-14.4 32-32V784c0-17.6-14.4-32-32-32zM717 597c18.2 0 33 14.8 33 33s-14.8 33-33 33-33-14.8-33-33 14.8-33 33-33z m99 291H594v-72h222v72z" p-id="9613"></path></svg>