<?xml version="1.0" standalone="no"?><!DOCTYPE svg PUBLIC "-//W3C//DTD SVG 1.1//EN" "http://www.w3.org/Graphics/SVG/1.1/DTD/svg11.dtd"><svg t="1773888406298" class="icon" viewBox="0 0 1024 1024" version="1.1" xmlns="http://www.w3.org/2000/svg" p-id="14591" xmlns:xlink="http://www.w3.org/1999/xlink" width="256" height="256"><path d="M937.135543 186.075429c-15.096686 0-28.320914 8.484571-28.320914 25.482971v640.555886c0 28.350171-41.5744 56.700343-79.374629 56.700343H217.234286c-45.348571 0-102.019657-28.379429-102.019657-56.700343v-56.700343c0-28.320914 56.671086-56.671086 94.471314-56.671086H829.44c15.125943 0 15.125943-5.675886 15.125943-16.9984V171.885714C844.565943 115.185371 825.636571 58.514286 742.517029 58.514286H217.234286C141.663086 58.514286 58.514286 109.538743 58.514286 171.885714v697.226972c7.548343 51.024457 75.5712 90.697143 136.045714 96.373028h634.88c75.5712 0 136.045714-51.024457 136.045714-113.371428V211.5584c0-16.9984-13.224229-25.512229-28.350171-25.512229zM285.257143 115.156114h141.7216v278.528l-52.4288-44.938971a28.350171 28.350171 0 0 0-36.864 0L285.257143 393.684114V115.214629z m-56.700343 0v340.143543a28.350171 28.350171 0 0 0 46.811429 21.504l80.749714-69.2224 80.749714 69.2224a28.350171 28.350171 0 0 0 46.811429-21.504V115.185371h266.415543c15.096686 0 37.770971 17.027657 37.770971 56.700343v510.186057H209.685943c-30.251886 0-94.500571 16.969143-94.500572 28.320915V171.885714c0-28.350171 64.248686-56.700343 102.048915-56.700343h11.351771z m-3.774171 680.228572h574.434742c15.096686 0 22.674286 11.351771 22.674286 28.379428 0 16.969143-15.125943 28.320914-30.251886 28.320915H224.782629c-15.096686 0-30.222629-11.322514-30.222629-28.350172 0-16.9984 15.125943-28.320914 30.222629-28.320914z" p-id="14592"></path></svg>