<?xml version="1.0" standalone="no"?><!DOCTYPE svg PUBLIC "-//W3C//DTD SVG 1.1//EN" "http://www.w3.org/Graphics/SVG/1.1/DTD/svg11.dtd"><svg t="1773888527404" class="icon" viewBox="0 0 1024 1024" version="1.1" xmlns="http://www.w3.org/2000/svg" p-id="18805" xmlns:xlink="http://www.w3.org/1999/xlink" width="256" height="256"><path d="M0 170.666667v682.666666a85.333333 85.333333 0 0 0 85.333333 85.333334h853.333334a85.333333 85.333333 0 0 0 85.333333-85.333334V170.666667a85.333333 85.333333 0 0 0-85.333333-85.333334H85.333333a85.333333 85.333333 0 0 0-85.333333 85.333334z m758.016 35.669333h3.157333a85.333333 85.333333 0 1 1-3.157333 0zM171.52 736.682667V736.426667l225.024-338.346667a37.888 37.888 0 0 1 29.866667-17.408 36.522667 36.522667 0 0 1 29.696 16.725333l95.744 128.938667c2.474667 3.157333 5.12 6.229333 7.68 9.216 5.376 5.973333 12.458667 9.216 19.626666 9.216 7.936 0 13.397333-4.266667 20.309334-10.410667l33.194666-35.072c7.338667-7.338667 13.653333-12.629333 22.784-12.629333 8.789333 0.341333 17.066667 5.205333 22.784 13.653333h-0.085333l176.042667 236.458667h-682.666667v-0.085333z" p-id="18806"></path></svg>