<?xml version="1.0" standalone="no"?><!DOCTYPE svg PUBLIC "-//W3C//DTD SVG 1.1//EN" "http://www.w3.org/Graphics/SVG/1.1/DTD/svg11.dtd"><svg t="1773887809492" class="icon" viewBox="0 0 1024 1024" version="1.1" xmlns="http://www.w3.org/2000/svg" p-id="8540" xmlns:xlink="http://www.w3.org/1999/xlink" width="256" height="256"><path d="M964.288 762.048c-74.048-73.088-168.704-83.2-292.928-94.528 0 195.904-100.544 231.232-166.016 286.848-65.28-55.488-165.76-90.816-165.76-285.824-124.352 12.8-218.88 25.6-292.928 98.56-71.424 70.4-61.76 242.688 38.4 242.688h840.96c100.032 0 109.824-177.152 38.4-247.744zM285.824 418.432a5.632 5.632 0 0 1 1.344 2.112c37.312 122.304 127.36 210.688 223.232 210.688 94.656 0 180.736-86.144 217.6-206.08a4.544 4.544 0 0 1 1.6-2.304 135.744 135.744 0 0 0 40.832-53.76c17.792-42.368 4.736-76.16-22.784-87.744h-0.896C743.104 109.44 727.36 0 510.272 0S274.432 106.496 269.184 274.176a18.304 18.304 0 0 1-7.232 13.632 66.048 66.048 0 0 0-11.776 81.28 139.392 139.392 0 0 0 35.392 49.344z m42.24-84.736a1.536 1.536 0 0 0 2.304-1.92 187.456 187.456 0 0 1-1.024-93.696c112.64 64.64 267.392-3.52 307.2-29.952 1.216 16.448-0.384 41.024-18.112 51.2a54.016 54.016 0 0 0 31.232-49.472c4.8 10.752 16 27.456 57.024 42.752a544 544 0 0 1-13.248 92.288 1.536 1.536 0 0 0 2.816 1.088c32-49.344 45.504-11.264 45.504 17.728 0 30.336-35.2 35.392-35.2 35.392s-30.272 201.792-201.216 201.792c-161.024 0-181.12-196.928-181.12-196.928a59.008 59.008 0 0 1-35.2-50.56c-4.608-36.992 16.128-35.776 39.04-19.776z m242.624 358.912l-40.256 51.2h-2.048l40.96 116.736-59.008 52.16-69.12-52.16 40.96-116.736h-2.24l-40.32-51.2 30.272-31.04h70.4z" p-id="8541"></path></svg>