<?xml version="1.0" standalone="no"?><!DOCTYPE svg PUBLIC "-//W3C//DTD SVG 1.1//EN" "http://www.w3.org/Graphics/SVG/1.1/DTD/svg11.dtd"><svg t="1773888195307" class="icon" viewBox="0 0 1024 1024" version="1.1" xmlns="http://www.w3.org/2000/svg" p-id="11418" xmlns:xlink="http://www.w3.org/1999/xlink" width="256" height="256"><path d="M864.256 480.768v-2.048-1.024c0-0.512 0-1.024-0.512-1.536 0-0.512 0-1.024-0.512-1.536 0-0.512 0-1.024-0.512-1.536 0-0.512-0.512-1.024-0.512-1.536 0-0.512-0.512-1.024-0.512-1.536 0-0.512-0.512-1.024-0.512-1.536 0-0.512-0.512-0.512-0.512-1.024-0.512-0.512-0.512-1.024-1.024-1.536 0 0 0-0.512-0.512-0.512l-139.776-228.864c-24.064-38.912-77.312-69.632-121.344-69.632H425.472c-44.032 0-97.28 30.72-121.344 69.632L164.352 465.408s0 0.512-0.512 0.512c-0.512 0.512-0.512 1.024-1.024 1.536 0 0.512-0.512 0.512-0.512 1.024s-0.512 1.024-0.512 1.536c0 0.512-0.512 1.024-0.512 1.536 0 0.512-0.512 1.024-0.512 1.536 0 0.512-0.512 1.024-0.512 1.536 0 0.512 0 1.024-0.512 1.536 0 0.512 0 1.024-0.512 1.536V758.272c0 54.272 41.984 98.816 94.208 98.816h516.096c51.712 0 94.208-44.032 94.208-98.816v-276.48c0.512-0.512 0.512-0.512 0.512-1.024zM356.864 268.8c12.8-20.992 45.568-40.448 69.12-40.448h172.544c23.04 0 55.808 19.456 69.12 40.448l111.104 182.272h-105.984c-16.896 0-30.72 13.824-30.72 30.72v141.824H381.952V481.792c0-16.896-13.824-30.72-30.72-30.72H245.248l111.616-182.272z m445.952 489.472c0 20.48-14.848 37.376-32.768 37.376H253.952c-17.92 0-32.768-16.896-32.768-37.376V512h99.328v141.824c0 16.896 13.824 30.72 30.72 30.72h321.536c16.896 0 30.72-13.824 30.72-30.72V512h99.328v246.272z" p-id="11419"></path></svg>