<?xml version="1.0" standalone="no"?><!DOCTYPE svg PUBLIC "-//W3C//DTD SVG 1.1//EN" "http://www.w3.org/Graphics/SVG/1.1/DTD/svg11.dtd"><svg t="1773888702576" class="icon" viewBox="0 0 1024 1024" version="1.1" xmlns="http://www.w3.org/2000/svg" p-id="23149" xmlns:xlink="http://www.w3.org/1999/xlink" width="256" height="256"><path d="M975.176 772.208l-1.48-0.536c-42.592-15.112-61.568-60.856-42.16-101.624l0.816-1.688a220.36 220.36 0 0 0-39.4-39.656l-1.928 0.904c-40.832 19.36-86.608 0.416-101.744-42.136l-0.944-2.608a218.672 218.672 0 0 0-28.952-1.976c-8.904 0-17.728 0.608-26.352 1.624l-1.064 2.96c-15.152 42.528-60.952 61.496-101.768 42.112l-2.984-1.432c-0.168-0.096-0.312-0.144-0.48-0.208a218.816 218.816 0 0 0-38.776 38.392l0.304 0.712 1.424 2.984c19.408 40.76 0.416 86.504-42.168 101.608l-3.104 1.112c-0.36 0.144-0.648 0.28-0.984 0.392a217.04 217.04 0 0 0-1.744 27.136c0 9.192 0.624 18.216 1.744 27.112 0.336 0.136 0.624 0.272 0.984 0.4l3.104 1.12c42.576 15.112 61.568 60.856 42.168 101.616l-1.424 2.992-0.304 0.696a219.08 219.08 0 0 0 38.76 38.408c0.176-0.096 0.32-0.152 0.496-0.232l2.984-1.416c40.816-19.376 86.616-0.44 101.768 42.112l1.064 2.952c8.624 1.048 17.448 1.648 26.352 1.648 9.832 0 19.48-0.72 28.936-1.984l0.96-2.616c15.136-42.552 60.936-61.488 101.744-42.112l1.928 0.912a221.064 221.064 0 0 0 39.424-39.664l-0.832-1.704c-19.416-40.768-0.44-86.504 42.16-101.632l1.48-0.536c1.208-9.168 1.88-18.528 1.88-28.072s-0.672-18.856-1.888-28.072z m-215.784 150.456c-67.68 0-122.52-54.776-122.52-122.368 0-67.576 54.856-122.36 122.52-122.36 67.68 0 122.52 54.784 122.52 122.36 0 67.592-54.84 122.368-122.52 122.368z" p-id="23150"></path><path d="M512.344 966.856c-128.32-25.216-227.336-88.688-294.376-188.64C74.984 565.024 113.816 243.664 127.392 158.448c155.872-12.072 340.552-82.216 384.96-99.848 44.416 17.632 229.088 87.784 384.952 99.848 9.432 59.16 30.96 232.12-4.536 403.688a255.76 255.76 0 0 1 50.344 37.328c55.176-228 8.824-460.992 6.168-473.816l-4.488-21.8-22.232-0.872C754.232 96.336 526.696 3.096 524.424 2.152L519.2 0h-13.72l-5.216 2.152c-2.28 0.944-229.64 94.176-398.136 100.832l-22.232 0.872-4.488 21.8C71.928 142.584-7.84 543.344 170.624 809.688c76.544 114.24 189.328 186.168 335.216 213.816l2.616 0.496h7.776l2.624-0.504" p-id="23151"></path><path d="M657.272 318H550.144V126.664L364.616 388.064h107.16V579.44z" p-id="23152"></path></svg>